<?xml version="1.0" encoding="UTF-8" standalone="no"?>
<!-- Generator: Adobe Illustrator 22.1.0, SVG Export Plug-In . SVG Version: 6.00 Build 0)  -->

<svg
   xmlns:svg="http://www.w3.org/2000/svg"
   xmlns="http://www.w3.org/2000/svg"
   version="1.1"
   id="Layer_1"
   x="0px"
   y="0px"
   width="28px"
   height="28px"
   viewBox="-3 0 28 28"
   xml:space="preserve"
>
    <g id="g33" style="fill:#ffffff;fill-opacity:1">
        <g id="g35" style="fill:#ffffff;fill-opacity:1">
            <path fill="#675DA9" id="path37" style="fill:#ffffff;fill-opacity:1" d="M19.4,4.9c-0.5-0.5-2.7-2.1-7.6-2.1c0,0-5.8-0.3-8.6,2.2C1.6,6.5,1.1,8.8,1,11.7c-0.1,2.8-0.1,8.2,5,9.6    c0,0,0,0,0,0l0,2.2c0,0,0,0.9,0.6,1.1c0.7,0.2,1.1-0.5,1.8-1.2c0.4-0.4,0.9-1,1.3-1.4c3.5,0.3,6.2-0.4,6.5-0.5    c0.7-0.2,4.7-0.7,5.4-6.1C22.2,9.9,21.2,6.4,19.4,4.9z M20,15c-0.6,4.4-3.8,4.7-4.4,4.9C15.3,20,13,20.6,10,20.4    c0,0-2.2,2.7-2.9,3.4c-0.1,0.1-0.2,0.2-0.3,0.1c-0.1,0-0.2-0.2-0.2-0.4c0-0.3,0-3.7,0-3.7c0,0,0,0,0,0c-4.3-1.2-4.1-5.7-4-8.1    c0-2.4,0.5-4.3,1.8-5.6c2.4-2.2,7.3-1.8,7.3-1.8c4.1,0,6.1,1.3,6.6,1.7C19.8,7.3,20.6,10.4,20,15z" />
        </g>
        <g id="g39" style="fill:#ffffff;fill-opacity:1">
            <path fill="#675DA9" id="path41" style="fill:#ffffff;fill-opacity:1" d="M13.8,11.8c-0.1,0-0.3-0.1-0.3-0.3c0-0.9-0.5-1.4-1.4-1.4c-0.2,0-0.3-0.1-0.3-0.3c0-0.2,0.1-0.3,0.3-0.3    c1.2,0.1,1.9,0.7,1.9,2C14.1,11.7,14,11.8,13.8,11.8C13.8,11.8,13.8,11.8,13.8,11.8z" />
        </g>
        <g id="g43" style="fill:#ffffff;fill-opacity:1">
            <path fill="#675DA9" id="path45" style="fill:#ffffff;fill-opacity:1" d="M15.2,12.3C15.2,12.3,15.2,12.3,15.2,12.3c-0.2,0-0.3-0.1-0.3-0.3c0-0.9-0.2-1.7-0.8-2.3    c-0.6-0.6-1.4-1-2.4-1c-0.2,0-0.3-0.1-0.3-0.3c0-0.2,0.1-0.3,0.3-0.3c1.2,0.1,2.1,0.5,2.8,1.2c0.7,0.7,1,1.6,1,2.7    C15.5,12.2,15.4,12.3,15.2,12.3z" />
        </g>
        <g id="g47" style="fill:#ffffff;fill-opacity:1">
            <path fill="#675DA9" id="path49" style="fill:#ffffff;fill-opacity:1" d="M16.7,12.9c-0.2,0-0.3-0.1-0.3-0.3c0-1.7-0.5-3-1.5-3.9c-1-1-2.2-1.4-3.7-1.5c-0.2,0-0.3-0.1-0.3-0.3    c0-0.2,0.1-0.3,0.3-0.3c0,0,0,0,0,0c1.6,0,3,0.6,4.1,1.6c1.1,1.1,1.6,2.5,1.7,4.3C16.9,12.7,16.8,12.9,16.7,12.9    C16.7,12.9,16.7,12.9,16.7,12.9z" />
        </g>
        <g id="g51" style="fill:#ffffff;fill-opacity:1">
            <path fill="#675DA9" id="path53" style="fill:#ffffff;fill-opacity:1" d="M12.2,15.3c0,0,0.4,0,0.6-0.2l0.4-0.5c0.2-0.3,0.7-0.4,1.1-0.2c0.3,0.1,0.7,0.4,1,0.6    c0.3,0.2,0.9,0.8,0.9,0.8c0.3,0.3,0.4,0.6,0.2,1c0,0,0,0,0,0c-0.2,0.4-0.5,0.7-0.8,1c0,0,0,0,0,0c-0.3,0.2-0.6,0.4-0.9,0.4    c0,0-0.1,0-0.1,0c-0.1,0-0.2,0-0.4-0.1l0,0c-0.4-0.1-1.2-0.4-2.4-1.1c-0.8-0.4-1.4-0.9-2-1.3C9.6,15.6,9.3,15.3,9,15c0,0,0,0,0,0    c0,0,0,0,0,0l0,0c0,0,0,0,0,0c0,0,0,0,0,0c0,0,0,0,0,0c-0.3-0.3-0.6-0.6-0.8-0.9c-0.4-0.6-0.9-1.2-1.3-2c-0.7-1.2-1-1.9-1.1-2.4    l0,0c0-0.1-0.1-0.2-0.1-0.4c0-0.1,0-0.1,0-0.1c0-0.3,0.2-0.6,0.4-0.9c0,0,0,0,0,0c0.3-0.4,0.7-0.6,1-0.8c0,0,0,0,0,0    c0.4-0.2,0.8-0.1,1,0.2c0,0,0.5,0.6,0.8,0.9c0.2,0.3,0.5,0.8,0.6,1c0.3,0.5,0.1,0.9-0.2,1.1l-0.5,0.4c-0.3,0.2-0.2,0.6-0.2,0.6    S9.3,14.5,12.2,15.3z" />
        </g>
    </g>
</svg>